<?xml version="1.0" encoding="utf-8"?>
<!-- Generator: Adobe Illustrator 16.0.0, SVG Export Plug-In . SVG Version: 6.00 Build 0)  -->
<!DOCTYPE svg PUBLIC "-//W3C//DTD SVG 1.1//EN" "http://www.w3.org/Graphics/SVG/1.1/DTD/svg11.dtd">
<svg version="1.1" id="Layer_1" xmlns="http://www.w3.org/2000/svg" xmlns:xlink="http://www.w3.org/1999/xlink" x="0px" y="0px"
	 width="126.418px" height="73.208px" viewBox="0 0 126.418 73.208" enable-background="new 0 0 126.418 73.208"
	 xml:space="preserve">
<g>
	<path fill="#FFFFFF" d="M53.639,51.458c-4.151-0.125-9.149-0.08-12.946,0.565c-7.854,1.334-19.724,6.788-19.724,6.788
		c2.86-7.688,9.628-13.684,18.297-15.157c4.704-0.799,9.317-0.153,13.392,1.609c-0.223-2.226-0.333-4.558-0.32-6.997
		c0.02-3.931,0.342-7.874,0.845-11.667c-1.008,0.563-2.127,0.968-3.331,1.172c-5.669,0.963-11.045-2.852-12.008-8.521
		c0,0,4.76,0.369,10.458-0.599c2.533-0.43,4.803-1.049,6.544-1.603c1.349-6.318,2.954-11.635,4.04-14.927
		c-7.295,0.496-20.032,1.447-26.25,2.503C24.197,6.059,4.488,11.64,2.021,12.323c-1.841,0.509-2.256,1.115-1.91,3.153
		c2.426,14.28,13.183,60.771,43.808,55.567c6.215-1.057,10.954-3.852,14.541-7.756c-0.717-1.093-1.375-2.25-1.968-3.476
		C55.274,57.301,54.323,54.51,53.639,51.458z M11.532,23.721c0,0,4.76,0.369,10.458-0.599c5.698-0.968,10.07-2.888,10.07-2.888
		c0.963,5.669-2.852,11.045-8.521,12.008C17.871,33.205,12.494,29.39,11.532,23.721z"/>
	<path fill="#FFFFFF" d="M124.71,20.428c-2.327-1.066-20.899-9.707-29.004-12.462C87.602,5.21,67.611,0.738,65.117,0.165
		C64.658,0.059,64.273,0,63.941,0c-0.983,0-1.479,0.527-1.966,1.917c-0.013,0.038-0.026,0.073-0.04,0.112
		c-1.08,3.176-2.589,8.086-3.906,13.878c-0.555,2.444-1.077,5.045-1.517,7.741c-1.22,7.471-1.816,15.661-0.793,23.212
		c0.217,1.605,0.508,3.184,0.882,4.719c0.822,3.377,2.045,6.549,3.77,9.381c2.931,4.812,7.312,8.637,13.646,10.791
		c2.941,1,5.774,1.459,8.486,1.459c24.396,0,39.395-37.022,43.59-49.365C126.76,21.887,126.445,21.223,124.71,20.428z
		 M78.527,16.261c5.443,1.852,8.355,7.766,6.506,13.209c0,0-4.012-2.59-9.483-4.451c-2.542-0.864-4.928-1.411-6.756-1.75
		c-2.108-0.391-3.476-0.503-3.476-0.503c0.646-1.9,1.787-3.49,3.229-4.678C71.241,15.871,74.982,15.056,78.527,16.261z
		 M78.316,59.107c-5.322-1.81-9.582-5.323-12.383-9.722c-1.58-2.483-2.698-5.246-3.275-8.148c0,0,1.867,1.251,4.592,2.898
		c3.84,2.322,9.382,5.433,13.795,6.934c7.543,2.564,20.577,3.417,20.577,3.417C95.447,59.885,86.641,61.938,78.316,59.107z
		 M110.302,38.062c0,0-4.01-2.59-9.483-4.451c-5.473-1.861-10.23-2.253-10.23-2.253c1.852-5.444,7.766-8.356,13.209-6.505
		S112.152,32.618,110.302,38.062z"/>
</g>
</svg>
